# xmcd
#
# Track frame offsets:
#	150
#	15138
#	28831
#	47273
#	61750
#	72303
#	87621
#	100621
#	118403
#	132345
#	150037
#	164532
#	179546
#	198878
#	217140
#
# Disc length: 2994 seconds
#
# Revision: 0
# Processed by: cddbd v1.5.1PL0 Copyright (c) Steve Scherf et al.
# Submitted via: EasyCDDAExtractor 4.6.9.1
#
DISCID=c50bb00f
DTITLE=Mark Chesnutt - Savin' The Honky Tonk
DYEAR=2004
DGENRE=Country
TTITLE0=Somebody Save The Honky Tonks
TTITLE1=I'm A Saint
TTITLE2=The Lord Loves The Drinkin' Man
TTITLE3=Would These Arms Be In Your Way
TTITLE4=You Can't Do Me This Way
TTITLE5=A Hard Secret To Keep
TTITLE6=What Are We Doing In Love
TTITLE7=Don't Ruin It For The Rest Of Us
TTITLE8=Mama's House
TTITLE9=Since You Ain't Home
TTITLE10=Think Like A Woman
TTITLE11=Then We Can All Go Home
TTITLE12=Beer, Bait And Ammo
TTITLE13=My Best Drinkin'
TTITLE14=Honky Tonk Heroes
EXTD=
EXTT0=
EXTT1=
EXTT2=
EXTT3=
EXTT4=
EXTT5=
EXTT6=
EXTT7=
EXTT8=
EXTT9=
EXTT10=
EXTT11=
EXTT12=
EXTT13=
EXTT14=
PLAYORDER=
